<svg width="540" height="95" viewBox="0 0 540 95" fill="none" xmlns="http://www.w3.org/2000/svg">
<path d="M31.002 40.9727H35.8716V14.8018H63.4696V72.7653H35.8716V53.2191H31.002V72.7653H3.48111V14.8018H31.002V40.9727ZM100.643 50.1238V14.8115H128.241V47.0188C128.241 56.0831 125.933 62.7817 121.317 67.1146C116.708 71.4474 109.37 73.6139 99.3026 73.6139H97.1233C87.1076 73.6139 79.7918 71.4346 75.1761 67.076C70.5668 62.711 68.2621 56.0252 68.2621 47.0188V14.8115H95.7733V50.1238C95.7733 50.8502 95.9983 51.4256 96.4483 51.8498C96.8983 52.2677 97.4704 52.4766 98.1647 52.4766C98.8654 52.4766 99.4537 52.2516 99.9294 51.8016C100.405 51.3581 100.643 50.7988 100.643 50.1238ZM173.206 72.7653H133.024V14.8018H163.727C173.402 14.8018 180.422 16.2 184.787 18.9965C189.152 21.7929 191.334 26.2929 191.334 32.4965C191.334 34.6823 191.055 36.6976 190.495 38.5426C189.936 40.3876 189.377 41.7023 188.818 42.4866L187.979 43.6534C189.875 44.6048 191.216 46.9255 192 50.6156C192.334 52.1263 192.501 53.862 192.501 55.8227C192.501 61.0813 190.894 65.2181 187.68 68.2331C184.465 71.2546 179.641 72.7653 173.206 72.7653ZM161.885 43.7402H166.668V39.3816C166.668 38.6551 166.443 38.0798 165.993 37.6555C165.549 37.2376 164.99 37.0287 164.315 37.0287H161.885V43.7402ZM169.011 47.848H161.885V52.6309H169.011C169.628 52.6309 170.175 52.3931 170.65 51.9173C171.126 51.4416 171.364 50.8695 171.364 50.2009C171.364 49.5323 171.139 48.973 170.689 48.523C170.245 48.073 169.686 47.848 169.011 47.848ZM224.554 13.9629C229.138 13.9629 233.429 14.2554 237.428 14.8404C241.426 15.4254 244.293 16.0265 246.029 16.6436L248.546 17.5693V41.5609C244.014 39.4909 237.807 38.4559 229.925 38.4559V40.6352C237.196 41.1944 242.426 42.6505 245.614 45.0034C248.796 47.3498 250.388 50.8984 250.388 55.6491C250.388 61.3577 248.067 65.7774 243.425 68.9081C238.784 72.0389 231.626 73.6042 221.951 73.6042C216.416 73.6042 211.523 73.2828 207.274 72.6399C203.018 71.9971 200.164 71.3671 198.711 70.7499L196.445 69.7471V48.8605C196.953 49.0855 197.708 49.3909 198.711 49.7766C199.721 50.1688 201.974 50.6734 205.471 51.2906C208.962 51.9077 212.722 52.2163 216.753 52.2163V50.2009C209.926 49.6995 204.78 48.2466 201.315 45.8423C197.85 43.4316 196.117 39.2369 196.117 33.2583C196.117 27.2733 198.493 22.5611 203.243 19.1218C208.001 15.6825 215.104 13.9629 224.554 13.9629ZM264.148 39.208H254.081V14.8018H305.757V39.208H295.526V72.7653H264.148V39.208ZM342.998 50.1238V14.8115H370.606V47.0188C370.606 56.0831 368.298 62.7817 363.682 67.1146C359.066 71.4474 351.725 73.6139 341.658 73.6139H339.478C329.469 73.6139 322.156 71.4346 317.541 67.076C312.925 62.711 310.617 56.0252 310.617 47.0188V14.8115H338.138V50.1238C338.138 50.8502 338.36 51.4256 338.803 51.8498C339.253 52.2677 339.829 52.4766 340.529 52.4766C341.224 52.4766 341.809 52.2516 342.284 51.8016C342.76 51.3581 342.998 50.7988 342.998 50.1238ZM375.389 72.7653V14.8018H405.677C415.018 14.8018 422.163 17.039 427.113 21.5133C432.063 25.9876 434.538 33.284 434.538 43.4027C434.538 62.9778 424.526 72.7653 404.5 72.7653H375.389ZM405.928 39.208H403.584V53.7206H405.928C406.603 53.7206 407.178 53.4988 407.654 53.0552C408.129 52.6052 408.367 52.017 408.367 51.2906V41.5609C408.367 40.8859 408.129 40.3266 407.654 39.883C407.178 39.433 406.603 39.208 405.928 39.208ZM468.172 72.7653H439.311V14.8018H468.172V72.7653ZM500.727 13.9629H507.689C517.756 13.9629 525.085 16.3383 529.675 21.089C534.259 25.8462 536.55 33.313 536.55 43.4895C536.55 53.6659 534.242 61.2292 529.627 66.1792C525.017 71.1292 517.705 73.6042 507.689 73.6042H500.727C490.718 73.6042 483.392 71.1292 478.751 66.1792C474.109 61.2292 471.789 53.6659 471.789 43.4895C471.789 33.313 474.093 25.8462 478.702 21.089C483.318 16.3383 490.66 13.9629 500.727 13.9629ZM501.817 41.5609V51.2906C501.817 52.017 502.029 52.6052 502.453 53.0552C502.871 53.4988 503.43 53.7206 504.131 53.7206C504.825 53.7206 505.41 53.4988 505.886 53.0552C506.362 52.6052 506.599 52.017 506.599 51.2906V41.5609C506.599 40.8859 506.362 40.3266 505.886 39.883C505.41 39.433 504.825 39.208 504.131 39.208C503.43 39.208 502.871 39.433 502.453 39.883C502.029 40.3266 501.817 40.8859 501.817 41.5609Z" fill="white"/>
</svg>
