<svg xmlns="http://www.w3.org/2000/svg" xml:space="preserve" width="1500" height="98" data-id="lg_HYib3UYNg8ea11E3rC" data-version="1"><g data-padding="20"><g transform="translate(10 1.75)scale(.96429)"><path fill="#fff" d="M519.557 42.335h5.05v-27.14h28.62v60.11h-28.62v-20.27h-5.05v20.27h-28.54v-60.11h28.54Zm72.22 9.49v-36.62h28.62v33.4q0 14.1-7.18 20.84-7.17 6.74-22.83 6.74h-2.26q-15.58 0-22.76-6.78-7.17-6.79-7.17-20.8v-33.4h28.53v36.62q0 1.13.7 1.79.7.65 1.78.65 1.09 0 1.83-.7.74-.69.74-1.74m75.25 23.48h-41.67v-60.11h31.84q15.05 0 21.84 4.35t6.79 14q0 3.4-.87 6.27t-1.74 4.09l-.87 1.21q2.95 1.48 4.17 7.22.52 2.35.52 5.4 0 8.18-5 12.87-5 4.7-15.01 4.7m-11.74-30.1h4.96v-4.52q0-1.13-.7-1.79-.69-.65-1.74-.65h-2.52Zm7.39 4.26h-7.39v4.96h7.39q.96 0 1.7-.74t.74-1.78-.7-1.74q-.69-.7-1.74-.7m57.6-35.14q7.13 0 13.35.91t8.92 1.87l2.61.96v24.88q-7.05-3.22-19.31-3.22v2.26q11.31.87 16.27 4.53 4.95 3.65 4.95 11.04 0 8.88-7.22 13.75t-22.27 4.87q-8.61 0-15.22-1-6.62-1-8.88-1.96l-2.35-1.04v-21.66q.79.35 2.35.95 1.57.61 7.01 1.57 5.43.96 11.7.96v-2.09q-10.62-.78-16.01-4.52-5.39-3.75-5.39-13.05 0-9.31 7.39-14.66 7.4-5.35 22.1-5.35m41.06 26.18h-10.44v-25.31h53.59v25.31h-10.61v34.8h-32.54Zm81.77 11.32v-36.62h28.63v33.4q0 14.1-7.18 20.84t-22.84 6.74h-2.26q-15.57 0-22.75-6.78-7.18-6.79-7.18-20.8v-33.4h28.54v36.62q0 1.13.69 1.79.7.65 1.79.65 1.08 0 1.82-.7.74-.69.74-1.74m33.59 23.48v-60.11h31.41q14.53 0 22.23 6.96t7.7 22.7q0 30.45-31.15 30.45Zm31.67-34.8h-2.43v15.05h2.43q1.05 0 1.79-.69.74-.7.74-1.83v-10.09q0-1.05-.74-1.74-.74-.7-1.79-.7m64.55 34.8h-29.93v-60.11h29.93Zm33.76-60.98h7.22q15.66 0 22.8 7.39 7.13 7.4 7.13 23.23t-7.18 23.53q-7.17 7.7-22.75 7.7h-7.22q-15.57 0-22.79-7.7t-7.22-23.53 7.17-23.23q7.18-7.39 22.84-7.39m1.13 28.62v10.09q0 1.13.66 1.83.65.69 1.74.69 1.08 0 1.82-.69.74-.7.74-1.83v-10.09q0-1.05-.74-1.74-.74-.7-1.82-.7-1.09 0-1.74.7-.66.69-.66 1.74"/><rect width="560" height="98.31" x="86.907" y="-400.355" fill="none" rx="0" ry="0" transform="translate(400.5 400.2)"/></g><path fill="transparent" stroke="transparent" d="M470 0h560v98H470z"/></g></svg>